<?xml version="1.0" standalone="no"?>
<!DOCTYPE svg PUBLIC "-//W3C//DTD SVG 20010904//EN"
 "http://www.w3.org/TR/2001/REC-SVG-20010904/DTD/svg10.dtd">
<svg version="1.0" xmlns="http://www.w3.org/2000/svg"
 width="222.000000pt" height="109.000000pt" viewBox="0 0 222.000000 109.000000"
 preserveAspectRatio="xMidYMid meet">

<g transform="translate(0.000000,109.000000) scale(0.100000,-0.100000)"
fill="#000000" stroke="none">
<path d="M943 995 c-24 -10 -33 -21 -33 -38 0 -18 -5 -23 -22 -23 -19 1 -24
-5 -26 -31 -2 -18 -5 -33 -7 -33 -3 0 -548 -135 -607 -151 l-38 -10 0 -204 0
-204 38 -10 c20 -6 225 -58 456 -115 l418 -106 442 112 c242 61 447 115 454
121 9 7 12 60 12 203 0 175 -2 194 -18 203 -9 5 -164 46 -344 91 -321 81 -327
83 -330 109 -2 20 -8 26 -25 25 -18 0 -23 5 -23 22 0 24 -33 50 -50 39 -6 -3
-10 -1 -10 4 0 6 -13 11 -29 11 -21 0 -32 -6 -36 -20 -3 -11 -13 -20 -20 -20
-8 0 -21 -10 -29 -22 l-16 -22 -16 22 c-8 12 -24 22 -35 22 -12 0 -19 7 -19
20 0 24 -38 27 -87 5z m77 -34 c0 -26 -5 -41 -16 -45 -24 -9 -24 -9 -24 39 0
38 3 45 20 45 17 0 20 -7 20 -39z m200 -7 c0 -38 -3 -45 -16 -40 -9 3 -18 6
-20 6 -2 0 -4 18 -4 40 0 33 3 40 20 40 17 0 20 -7 20 -46z m-260 -23 c0 -57
-15 -75 -24 -30 -10 52 -7 79 9 79 11 0 15 -12 15 -49z m309 17 c-1 -18 -4
-44 -8 -58 l-7 -25 -12 22 c-13 23 -16 76 -5 86 17 18 33 5 32 -25z m-199 -14
c0 -8 -7 -14 -15 -14 -15 0 -21 21 -9 33 10 9 24 -2 24 -19z m90 0 c0 -8 -7
-14 -15 -14 -15 0 -21 21 -9 33 10 9 24 -2 24 -19z m-240 -33 c5 -11 10 -31
10 -44 0 -20 6 -26 35 -31 37 -7 75 -46 75 -77 0 -13 6 -18 23 -16 20 2 22 -3
25 -45 l3 -48 -70 0 c-59 0 -71 3 -71 16 0 9 -18 36 -40 60 -40 43 -40 44 -40
124 0 73 2 80 20 80 10 0 24 -9 30 -19z m400 -69 c0 -88 0 -88 -35 -122 -19
-19 -35 -42 -35 -52 0 -16 -9 -18 -71 -18 l-70 0 3 48 c3 42 5 47 26 45 16 -2
22 3 22 16 0 31 38 70 75 77 29 5 35 11 35 31 0 32 17 63 35 63 12 0 15 -17
15 -88z m-240 58 c11 -7 7 -10 -17 -10 -18 0 -33 5 -33 10 0 13 30 13 50 0z
m134 -12 c5 -9 7 -21 2 -25 -4 -4 -12 0 -17 10 -6 9 -16 17 -24 17 -8 0 -17 5
-20 11 -5 7 3 9 20 7 16 -2 33 -11 39 -20z m767 -268 c17 -10 19 -22 19 -139
0 -96 -3 -131 -14 -140 -10 -8 -248 -10 -882 -9 l-869 3 -3 134 c-2 90 1 138
9 147 10 12 149 14 866 14 570 0 861 -3 874 -10z"/>
<path d="M240 455 c0 -54 1 -55 28 -55 35 0 52 16 52 51 0 47 -10 59 -46 59
l-34 0 0 -55z m58 3 c-2 -31 -8 -44 -20 -46 -15 -3 -18 4 -18 42 0 40 3 46 21
46 18 0 20 -5 17 -42z"/>
<path d="M370 455 c0 -54 1 -55 28 -54 16 1 20 3 10 6 -21 5 -24 39 -5 46 10
4 10 6 0 6 -20 1 -15 39 5 44 10 3 6 5 -10 6 -27 1 -28 0 -28 -54z"/>
<path d="M470 455 c0 -54 1 -55 28 -54 16 1 20 3 10 6 -14 3 -18 15 -18 54 0
27 -4 49 -10 49 -5 0 -10 -25 -10 -55z"/>
<path d="M573 455 c0 -33 2 -45 4 -27 2 18 2 45 0 60 -2 15 -4 0 -4 -33z"/>
<path d="M633 496 c3 -8 11 -32 18 -55 7 -23 16 -41 20 -41 9 0 41 101 34 108
-6 6 -25 -44 -25 -64 0 -27 -18 -5 -24 31 -4 19 -12 35 -18 35 -5 0 -8 -6 -5
-14z"/>
<path d="M760 455 c0 -54 1 -55 28 -54 23 2 24 2 5 6 -28 5 -32 43 -5 43 16 1
16 1 0 11 -25 14 -22 37 5 42 19 4 18 4 -5 6 -27 1 -28 0 -28 -54z"/>
<path d="M861 453 c1 -32 4 -46 6 -30 5 35 30 35 44 1 5 -15 12 -24 15 -21 3
3 0 15 -6 27 -9 16 -9 25 0 36 19 22 4 44 -30 44 l-30 0 1 -57z m47 30 c-2
-10 -10 -18 -18 -18 -8 0 -16 8 -18 18 -2 12 3 17 18 17 15 0 20 -5 18 -17z"/>
<path d="M985 480 c8 -16 15 -40 15 -55 0 -14 5 -25 10 -25 6 0 10 8 10 19 0
10 7 35 15 55 9 20 11 36 5 36 -5 0 -12 -11 -16 -25 -3 -14 -10 -25 -15 -25
-5 0 -11 11 -15 25 -3 14 -10 25 -15 25 -5 0 -3 -13 6 -30z"/>
<path d="M1094 496 c-3 -8 -4 -31 -2 -52 2 -32 7 -40 26 -42 13 -2 30 2 38 8
17 15 19 71 2 88 -16 16 -57 15 -64 -2z m54 -38 c-2 -31 -8 -44 -20 -46 -15
-3 -18 4 -18 42 0 40 3 46 21 46 18 0 20 -5 17 -42z"/>
<path d="M1224 497 c-3 -8 -4 -32 -2 -53 3 -36 5 -39 33 -39 29 0 30 1 30 50
0 47 -2 50 -28 53 -17 2 -29 -2 -33 -11z m54 -39 c-2 -35 -7 -43 -23 -43 -15
0 -21 8 -23 28 -5 40 4 57 28 57 19 0 21 -5 18 -42z"/>
<path d="M1352 455 c1 -54 1 -56 7 -20 l7 40 23 -37 c13 -21 25 -38 27 -38 2
0 4 25 4 55 0 58 -20 79 -21 23 0 -29 -2 -31 -12 -15 -35 55 -36 54 -35 -8z"/>
<path d="M1495 498 c-26 -71 -33 -98 -26 -98 5 0 11 7 15 15 7 20 32 19 40 -1
13 -34 17 -5 5 40 -12 49 -26 66 -34 44z m25 -50 c0 -5 -7 -8 -15 -8 -17 0
-18 2 -9 25 5 13 8 14 15 3 5 -7 9 -16 9 -20z"/>
<path d="M1592 503 c13 -3 18 -18 21 -56 l3 -52 2 52 c2 40 6 53 20 56 9 3 -1
5 -23 5 -22 0 -32 -2 -23 -5z"/>
<path d="M1703 455 c0 -33 2 -45 4 -27 2 18 2 45 0 60 -2 15 -4 0 -4 -33z"/>
<path d="M1768 485 c-18 -41 0 -80 37 -80 29 0 30 1 30 50 0 47 -2 50 -27 53
-22 3 -30 -2 -40 -23z m57 -30 c0 -33 -3 -40 -20 -40 -16 0 -21 8 -23 43 -3
40 -2 43 20 40 20 -3 23 -9 23 -43z"/>
<path d="M1902 455 c1 -54 1 -56 7 -20 l6 40 18 -32 c28 -52 37 -49 37 11 0
58 -20 80 -21 24 0 -29 -2 -31 -12 -15 -35 55 -36 54 -35 -8z"/>
</g>
</svg>
